<?xml version="1.0" encoding="UTF-8" standalone="no"?>
<!-- Created with Inkscape (http://www.inkscape.org/) -->

<svg
   width="100"
   height="100"
   viewBox="0 0 26.458333 26.458334"
   version="1.1"
   id="svg5"
   inkscape:version="1.1.2 (0a00cf5339, 2022-02-04)"
   sodipodi:docname="logo.svg"
   xmlns:inkscape="http://www.inkscape.org/namespaces/inkscape"
   xmlns:sodipodi="http://sodipodi.sourceforge.net/DTD/sodipodi-0.dtd"
   xmlns="http://www.w3.org/2000/svg"
   xmlns:svg="http://www.w3.org/2000/svg">
  <sodipodi:namedview
     id="namedview7"
     pagecolor="#ffffff"
     bordercolor="#000000"
     borderopacity="0.25"
     inkscape:pageshadow="2"
     inkscape:pageopacity="0.0"
     inkscape:pagecheckerboard="0"
     inkscape:document-units="mm"
     showgrid="false"
     units="px"
     width="100px"
     inkscape:zoom="6.2217172"
     inkscape:cx="29.734556"
     inkscape:cy="65.657115"
     inkscape:window-width="3366"
     inkscape:window-height="1376"
     inkscape:window-x="74"
     inkscape:window-y="27"
     inkscape:window-maximized="1"
     inkscape:current-layer="g4077" />
  <defs
     id="defs2" />
  <g
     inkscape:label="Layer 1"
     inkscape:groupmode="layer"
     id="layer1">
    <g
       id="g4077"
       transform="translate(0.14705746,-0.96510784)">
      <g
         aria-label="i"
         id="text300"
         style="font-size:14.1111px;font-family:D050000L;-inkscape-font-specification:D050000L;letter-spacing:-0.566208px;opacity:1;fill:#ff00ff;stroke-width:1.00803">
        <path
           d="m 13.884628,13.723579 v -2.215443 c 0.64911,-0.254 0.987777,-0.677333 0.987777,-1.255888 0,-0.6632218 -0.564444,-1.2135548 -1.227666,-1.2135548 -0.663222,0 -1.213555,0.5644441 -1.213555,1.2276658 0,0.578555 0.324556,0.987777 0.987777,1.241777 v 2.215443 l -1.876776,-1.086555 c 0.04233,-0.183445 0.05644,-0.338667 0.05644,-0.451555 0,-0.620889 -0.578555,-1.157111 -1.227665,-1.157111 -0.6914443,0 -1.2417772,0.522111 -1.2417772,1.171222 0,0.705555 0.564444,1.28411 1.2417772,1.28411 0.366888,0 0.634999,-0.127 0.945443,-0.465666 l 1.862666,1.100665 -1.862666,1.100666 C 11.005963,14.8948 10.737852,14.7678 10.370964,14.7678 c -0.6773332,0 -1.2558883,0.578555 -1.2558883,1.269999 0,0.649111 0.564444,1.185332 1.2558883,1.185332 0.663221,0 1.241776,-0.550333 1.241776,-1.199443 0,-0.127 -0.01411,-0.211667 -0.07056,-0.423333 l 1.876776,-1.072444 v 2.215443 c -0.64911,0.239889 -0.987777,0.677333 -0.987777,1.255888 0,0.64911 0.578555,1.213554 1.241777,1.213554 0.649111,0 1.199444,-0.564444 1.199444,-1.227665 0,-0.578555 -0.324556,-0.987777 -0.987777,-1.241777 v -2.215443 l 1.876776,1.072444 c -0.04233,0.197555 -0.05644,0.352777 -0.05644,0.465666 0,0.606777 0.578555,1.15711 1.227665,1.15711 0.705555,0 1.241777,-0.52211 1.241777,-1.185332 0,-0.691444 -0.550333,-1.269999 -1.241777,-1.269999 -0.352777,0 -0.634999,0.127 -0.945443,0.451555 l -1.848555,-1.100666 1.848555,-1.100665 c 0.296333,0.324555 0.578555,0.451555 0.959554,0.451555 0.677333,0 1.241777,-0.564444 1.241777,-1.255888 0,-0.663222 -0.550333,-1.185333 -1.241777,-1.185333 -0.677332,0 -1.255888,0.550333 -1.255888,1.185333 0,0.09878 0.01411,0.197555 0.07056,0.423333 z"
           id="path26201" />
      </g>
      <g
         aria-label="&lt;   &gt;"
         transform="scale(1.8095937,0.55261023)"
         id="text462"
         style="font-weight:bold;font-size:18.0975px;font-family:'DejaVu Sans';-inkscape-font-specification:'DejaVu Sans Bold';writing-mode:tb-rl;opacity:1;fill:#00ff00;stroke-width:2.35054">
        <path
           d="M 10.442773,14.165295 7.5089986,5.6467452 4.5928975,14.165295 H 2.38373 l 4.0913782,-11.3286108 2.0854541,0 4.0913777,11.3286108 z"
           id="path26204" />
        <path
           d="M 10.442773,36.902045 H 12.65194 L 8.5605623,48.230656 H 6.4751082 L 2.38373,36.902045 h 2.2091675 l 2.9161011,8.527387 z"
           id="path26206" />
      </g>
      <g
         aria-label="i"
         id="text25315"
         style="font-size:17.8852px;font-family:D050000L;-inkscape-font-specification:D050000L;letter-spacing:-0.717644px;opacity:1;fill:#ff00ff;stroke-width:1.27764">
        <path
           d="m 13.946898,13.616023 v -2.807976 c 0.822719,-0.321934 1.251964,-0.85849 1.251964,-1.5917833 0,-0.8406044 -0.715408,-1.5381272 -1.556012,-1.5381272 -0.840605,0 -1.538128,0.715408 -1.538128,1.5560124 0,0.7332933 0.41136,1.2519641 1.251964,1.5738981 v 2.807976 l -2.378731,-1.37716 c 0.05366,-0.232508 0.07154,-0.429245 0.07154,-0.572327 0,-0.786949 -0.733294,-1.466586 -1.5560129,-1.466586 -0.8763749,0 -1.5738977,0.661752 -1.5738977,1.484471 0,0.89426 0.7154081,1.627554 1.5738977,1.627554 0.4650152,0 0.8048339,-0.160967 1.1983089,-0.590212 l 2.360846,1.395046 -2.360846,1.395045 c -0.393475,-0.411359 -0.7332937,-0.572326 -1.1983089,-0.572326 -0.8584896,0 -1.5917829,0.733293 -1.5917829,1.609668 0,0.822719 0.715408,1.502357 1.5917829,1.502357 0.8406039,0 1.5738979,-0.697523 1.5738979,-1.520242 0,-0.160967 -0.01788,-0.268278 -0.08943,-0.536556 l 2.378731,-1.359276 v 2.807977 c -0.822719,0.304048 -1.251964,0.85849 -1.251964,1.591783 0,0.822719 0.733294,1.538127 1.573898,1.538127 0.822719,0 1.520242,-0.715408 1.520242,-1.556012 0,-0.733294 -0.41136,-1.251964 -1.251964,-1.573898 v -2.807977 l 2.378732,1.359276 c -0.05366,0.250393 -0.07154,0.44713 -0.07154,0.590211 0,0.769064 0.733293,1.466587 1.556012,1.466587 0.89426,0 1.573898,-0.661753 1.573898,-1.502357 0,-0.876375 -0.697523,-1.609668 -1.573898,-1.609668 -0.44713,0 -0.804834,0.160967 -1.198308,0.572326 l -2.342961,-1.395045 2.342961,-1.395046 c 0.375589,0.41136 0.733293,0.572326 1.216194,0.572326 0.858489,0 1.573897,-0.715408 1.573897,-1.591782 0,-0.840605 -0.697523,-1.502357 -1.573897,-1.502357 -0.85849,0 -1.591783,0.697523 -1.591783,1.502357 0,0.125196 0.01788,0.250392 0.08943,0.536556 z"
           id="path26209" />
      </g>
    </g>
  </g>
</svg>
