<?xml version="1.0" encoding="UTF-8" standalone="no"?>
<!-- Created with Inkscape (http://www.inkscape.org/) -->

<svg
   width="100"
   height="100"
   viewBox="0 0 26.458333 26.458334"
   version="1.1"
   id="svg5"
   inkscape:version="1.3 (1:1.3+202307231459+0e150ed6c4)"
   sodipodi:docname="logo.svg"
   xmlns:inkscape="http://www.inkscape.org/namespaces/inkscape"
   xmlns:sodipodi="http://sodipodi.sourceforge.net/DTD/sodipodi-0.dtd"
   xmlns="http://www.w3.org/2000/svg"
   xmlns:svg="http://www.w3.org/2000/svg">
  <sodipodi:namedview
     id="namedview7"
     pagecolor="#ffffff"
     bordercolor="#000000"
     borderopacity="0.25"
     inkscape:pageshadow="2"
     inkscape:pageopacity="0.0"
     inkscape:pagecheckerboard="0"
     inkscape:document-units="mm"
     showgrid="false"
     units="px"
     width="100px"
     inkscape:zoom="8.7988368"
     inkscape:cx="36.766223"
     inkscape:cy="55.007271"
     inkscape:window-width="3370"
     inkscape:window-height="1376"
     inkscape:window-x="70"
     inkscape:window-y="27"
     inkscape:window-maximized="1"
     inkscape:current-layer="text13819"
     inkscape:showpageshadow="2"
     inkscape:deskcolor="#d1d1d1" />
  <defs
     id="defs2" />
  <g
     inkscape:label="Layer 1"
     inkscape:groupmode="layer"
     id="layer1">
    <g
       id="g4077"
       transform="translate(0.14705746,-0.96510784)">
      <g
         aria-label="F"
         id="text13819"
         style="font-size:19.8187px;font-family:D050000L;-inkscape-font-specification:D050000L;writing-mode:tb-rl;fill:#ff00ff;stroke-width:1.41575">
        <path
           d="m 20.415855,16.247515 c 0.02527,-0.07514 -0.03724,-0.137981 -0.156098,-0.219769 -1.088696,-0.679751 -2.27564,-2.124367 -3.198596,-3.856575 -0.6859,-1.317942 -1.050958,-3.0925409 -0.927775,-4.640224 0.01928,-0.1816998 -0.01812,-0.257004 -0.09326,-0.2822734 -0.07514,-0.02527 -0.156763,0.03092 -0.238552,0.149781 -0.69222,1.0635947 -2.331668,2.4568408 -3.756335,3.2113974 -1.499973,0.791959 -3.3058249,1.125599 -4.8533413,0.939743 -0.1378124,-0.02543 -0.2131198,0.01197 -0.2320694,0.06832 -0.02527,0.07514 0.018452,0.131661 0.1373129,0.213451 1.1512028,0.74259 2.3070597,2.093114 3.1552088,3.67471 0.879234,1.675688 1.207056,3.312309 1.027018,5.029056 -0.01928,0.1817 0.01812,0.257005 0.112045,0.288591 0.07514,0.02527 0.131662,-0.01846 0.219768,-0.156098 1.567301,-2.54661 5.527609,-4.685767 8.165319,-4.384208 l 0.357083,0.05735 c 0.14413,0.0066 0.257003,-0.01812 0.282273,-0.09326 z"
           id="path23703" />
        <path
           d="m 20.706731,14.979496 c 0.0111,-0.07849 -0.06185,-0.128842 -0.193662,-0.18751 -1.194661,-0.469154 -2.625811,-1.6723 -3.850029,-3.206471 -0.91539,-1.170254 -1.598875,-2.8481439 -1.760852,-4.392249 -0.01428,-0.182161 -0.06482,-0.2493542 -0.143316,-0.2604537 -0.0785,-0.0111 -0.148463,0.059071 -0.207132,0.190887 -0.486004,1.1722638 -1.842961,2.8418722 -3.105581,3.8442807 -1.329814,1.052954 -3.0441769,1.711268 -4.5995814,1.811598 -0.1401389,2.06e-4 -0.2073352,0.05075 -0.2156583,0.109615 -0.0111,0.07849 0.042222,0.126065 0.1740381,0.184734 1.267607,0.5195 2.6509847,1.635828 3.7741106,3.03561 1.170896,1.486602 1.792536,3.035653 1.92954,4.756369 0.01428,0.182161 0.06482,0.249355 0.16294,0.263229 0.07849,0.0111 0.126064,-0.04223 0.187509,-0.193662 1.075069,-2.790319 4.577302,-5.617756 7.225672,-5.803738 l 0.361549,-0.0089 c 0.142905,-0.01987 0.249353,-0.06482 0.260453,-0.143316 z"
           id="path1" />
        <path
           d="m 20.763536,13.72027 c -0.003,-0.07922 -0.08365,-0.115878 -0.223762,-0.150318 -1.258786,-0.250555 -2.880102,-1.181731 -4.356268,-2.475301 -1.107864,-0.989985 -2.077224,-2.5206082 -2.509638,-4.0117538 -0.04626,-0.1767669 -0.107883,-0.2339665 -0.187105,-0.2310136 -0.07923,0.00295 -0.135681,0.084388 -0.170121,0.2244998 -0.2711,1.2397208 -1.311505,3.1229306 -2.377016,4.3327726 -1.1227111,1.271471 -2.6936833,2.222504 -4.2068491,2.59624 -0.137895,0.02498 -0.195097,0.08661 -0.192882,0.146016 0.00295,0.07922 0.063845,0.116614 0.2039565,0.151055 1.339484,0.287211 2.8984306,1.141382 4.2513376,2.320553 1.415274,1.256177 2.300985,2.670925 2.740043,4.340315 0.04626,0.176767 0.107884,0.233967 0.206911,0.230275 0.07922,-0.003 0.116612,-0.06385 0.150317,-0.223761 0.564823,-2.936432 3.512014,-6.338504 6.085787,-6.989772 l 0.35428,-0.07268 c 0.137141,-0.04482 0.233965,-0.107883 0.231013,-0.187105 z"
           id="path2" />
        <path
           d="m 20.639495,12.670747 c -0.01471,-0.0779 -0.0999,-0.102205 -0.243566,-0.115501 -1.282018,-0.06126 -3.023418,-0.741905 -4.674972,-1.802453 -1.24233,-0.8148899 -2.427801,-2.1849732 -3.076401,-3.5955806 -0.07194,-0.1679603 -0.141362,-0.2153972 -0.219272,-0.2007376 -0.07792,0.014658 -0.121678,0.1035619 -0.134976,0.2472302 -0.08441,1.2662063 -0.834263,3.282795 -1.708734,4.63717 -0.9219073,1.423801 -2.3346099,2.597124 -3.7756895,3.190958 -0.1326709,0.04514 -0.1801091,0.114564 -0.1691156,0.172986 0.014656,0.07791 0.08042,0.105866 0.2240884,0.119165 1.3672585,0.08551 3.0355646,0.699286 4.5482677,1.664962 1.585793,1.03259 2.671366,2.300473 3.35295,3.886372 0.07194,0.167961 0.141363,0.215397 0.23875,0.197073 0.0779,-0.01471 0.105863,-0.08042 0.115501,-0.243565 0.12346,-2.987712 2.533988,-6.788946 4.98284,-7.814411 l 0.339599,-0.124375 c 0.128985,-0.06465 0.215396,-0.141362 0.200736,-0.219272 z"
           id="path3" />
        <path
           d="m 20.341876,11.586576 c -0.02677,-0.07462 -0.114717,-0.08524 -0.25869,-0.07579 C 18.807469,11.651742 16.980748,11.25319 15.18306,10.465339 13.828113,9.8557898 12.442078,8.6890098 11.579875,7.3978465 11.482437,7.2432773 11.406423,7.2073386 11.331784,7.2340587 c -0.07464,0.026719 -0.103893,0.1213955 -0.09445,0.2653686 0.115609,1.2637395 -0.308048,3.3731067 -0.958831,4.8480677 -0.6867214,1.550979 -1.8975,2.931715 -3.2273627,3.74462 -0.1239302,0.06542 -0.1598691,0.141443 -0.139832,0.197411 0.026716,0.07464 0.096056,0.09191 0.2400299,0.08247 1.3637086,-0.130405 3.1077368,0.213596 4.7533918,0.929572 1.728351,0.770574 2.999671,1.852121 3.921992,3.311215 0.09744,0.15457 0.173453,0.190508 0.266751,0.157108 0.07462,-0.02677 0.09191,-0.09606 0.07579,-0.258689 -0.347556,-2.969994 1.435707,-7.10279 3.692997,-8.500323 l 0.315836,-0.176194 c 0.117225,-0.08411 0.190507,-0.173452 0.163787,-0.248091 z"
           id="path4" />
      </g>
      <g
         aria-label="&lt;   &gt;"
         transform="scale(1.8095937,0.55261023)"
         id="text462"
         style="font-weight:bold;font-size:18.0975px;font-family:'DejaVu Sans';-inkscape-font-specification:'DejaVu Sans Bold';writing-mode:tb-rl;opacity:1;fill:#00ff00;stroke-width:2.35054">
        <path
           d="M 10.442773,14.165295 7.5089986,5.6467452 4.5928975,14.165295 H 2.38373 l 4.0913782,-11.3286108 2.0854541,0 4.0913777,11.3286108 z"
           id="path26204" />
        <path
           d="M 10.442773,36.902045 H 12.65194 L 8.5605623,48.230656 H 6.4751082 L 2.38373,36.902045 h 2.2091675 l 2.9161011,8.527387 z"
           id="path26206" />
      </g>
    </g>
  </g>
</svg>
