<svg xmlns="http://www.w3.org/2000/svg"
    xmlns:xlink="http://www.w3.org/1999/xlink" version="1.1" x="0px" y="0px" viewBox="0 0 64 64" style="enable-background:new 0 0 64 64;" xml:space="preserve">
     <style type="text/css">.st1{fill:#00ff00;} .st2{fill:#ff00ff;}</style>
    <g >
        <path class='st2' d="M62.707,61.293l-11-11c-0.287-0.286-0.716-0.374-1.09-0.217C50.244,50.23,50,50.596,50,51v6h-0.458   c-4.297-6.3-6.829-13.63-7.305-21.245L42.1,33.572C42.01,32.13,40.808,31,39.362,31c-1.262,0-2.356,0.854-2.662,2.079l-0.761,3.042   c-0.551,2.204-1.691,4.217-3.296,5.822C31.961,42.625,31.055,43,30.091,43c-1.041,0-2.031-0.449-2.716-1.232   c-3.548-4.056-5.801-9.022-6.513-14.363l-0.619-4.642C20.034,21.188,18.676,20,17.087,20c-1.707,0-3.104,1.335-3.181,3.039   l-0.288,6.328C13.273,36.977,10.996,44.298,7,50.726V14h6c0.404,0,0.769-0.243,0.924-0.617s0.069-0.804-0.217-1.09l-11-11   C2.42,1.006,1.991,0.919,1.617,1.076C1.244,1.23,1,1.596,1,2v60c0,0.553,0.448,1,1,1h60c0.404,0,0.769-0.243,0.924-0.617   S62.993,61.579,62.707,61.293z M15.617,29.458l0.288-6.328c0.029-0.634,0.548-1.13,1.183-1.13c0.591,0,1.096,0.442,1.174,1.027   l0.619,4.641c0.764,5.733,3.182,11.064,6.99,15.416C26.935,44.302,28.473,45,30.091,45c1.498,0,2.906-0.583,3.965-1.643   c1.862-1.861,3.184-4.195,3.823-6.751l0.761-3.043C38.723,33.231,39.02,33,39.362,33c0.392,0,0.718,0.306,0.742,0.697l0.137,2.183   c0.47,7.527,2.868,14.781,6.917,21.12H38v-8h-2v8h-8v-6h-2v6h-9V41h-2v16H7v-2.686C12.228,47.018,15.209,38.432,15.617,29.458z    M3,61V4.414L10.586,12H6c-0.552,0-1,0.447-1,1v45c0,0.553,0.448,1,1,1h45c0.552,0,1-0.447,1-1v-4.586L59.586,61H3z"/>
        <path class='st1' d="M21.143,19.515C21.323,19.815,21.649,20,22,20h6c0.351,0,0.677-0.185,0.857-0.485L31.566,15H37v-2h-5.434l-2.4-4l2.4-4H37   V3h-6c-0.351,0-0.677,0.185-0.857,0.485L27.434,8H22c-0.351,0-0.677,0.185-0.857,0.485l-3,5c-0.19,0.316-0.19,0.713,0,1.029   L21.143,19.515z M22.566,10h4.867l2.4,4l-2.4,4h-4.867l-2.4-4L22.566,10z"/>
        <path class='st1' d="M42.143,29.515C42.323,29.815,42.649,30,43,30h6c0.351,0,0.677-0.185,0.857-0.485L52.566,25H58v-2h-5.434l-2.4-4   l2.691-4.485l-1.715-1.029L48.434,18h-4.868l-2.709-4.515l-1.715,1.029L41.834,19l-2.691,4.485c-0.19,0.316-0.19,0.713,0,1.029   L42.143,29.515z M43.566,20h4.867l2.4,4l-2.4,4h-4.867l-2.4-4L43.566,20z"/>
    </g>
    <!-- <text x="0" y="79" fill="#000000" font-size="5px" font-weight="bold" font-family="'Helvetica Neue', Helvetica, Arial-Unicode, Arial, Sans-serif">Created by Template</text> -->
    <!-- <text x="0" y="84" fill="#000000" font-size="5px" font-weight="bold" font-family="'Helvetica Neue', Helvetica, Arial-Unicode, Arial, Sans-serif">from the Noun Project</text> -->
</svg>