<svg xmlns="http://www.w3.org/2000/svg" data-name="Layer 1" viewBox="0 0 48 48" x="0px" y="0px">
    <title>expand-black-health</title>
    <style type="text/css">.st1{fill:#00ff00;} .st2{fill:#ff00ff;}</style>
    <path class='st1' d="M16,20A12,12,0,1,0,28,32,12,12,0,0,0,16,20Zm0,21.92A9.92,9.92,0,1,1,25.92,32,9.93,9.93,0,0,1,16,41.92Z"/>
    <path class='st1' d="M36,14a8,8,0,1,0,8,8A8,8,0,0,0,36,14Zm0,14.09A6.09,6.09,0,1,1,42.09,22,6.09,6.09,0,0,1,36,28.09Z"/>
    <path class='st2' d="M13,16a6,6,0,1,0-6-6A6,6,0,0,0,13,16ZM13,5.91A4.09,4.09,0,1,1,8.91,10,4.1,4.1,0,0,1,13,5.91Z"/>
    <path class='st1' d="M22,31H17V26a1,1,0,0,0-2,0v5H10a1,1,0,0,0,0,2h5v5a1,1,0,0,0,2,0V33h5a1,1,0,0,0,0-2Z"/>
    <path class='st1' d="M39,21H37V19a1,1,0,0,0-2,0v2H33a1,1,0,0,0,0,2h2v2a1,1,0,0,0,2,0V23h2a1,1,0,0,0,0-2Z"/>
    <path class='st2' d="M11,11h1v1a1,1,0,0,0,2,0V11h1a1,1,0,0,0,0-2H14V8a1,1,0,0,0-2,0V9H11a1,1,0,0,0,0,2Z"/>
    <!-- <text x="0" y="63" fill="#000000" font-size="5px" font-weight="bold" font-family="'Helvetica Neue', Helvetica, Arial-Unicode, Arial, Sans-serif">Created by HideMaru</text> -->
    <!-- <text x="0" y="68" fill="#000000" font-size="5px" font-weight="bold" font-family="'Helvetica Neue', Helvetica, Arial-Unicode, Arial, Sans-serif">from the Noun Project</text> -->
</svg>