<svg xmlns="http://www.w3.org/2000/svg"
    xmlns:xlink="http://www.w3.org/1999/xlink" version="1.1" x="0px" y="0px" viewBox="0 0 64 64" width="128" height="128" style="enable-background:new 0 0 64 64;" xml:space="preserve">
        <style type="text/css">.st1{fill:#000000;} .st2{fill:#d4821e;}</style>
    <g>
        <rect x="1" y="61" width="62" height="2" class='st1'/>
        <path class='st2' d="M5,25h1v4h2v-4h1c0.553,0,1-0.448,1-1V10c0-0.552-0.447-1-1-1H8V5H6v4H5c-0.553,0-1,0.448-1,1v14C4,24.552,4.447,25,5,25z    M6,11h2v12H6V11z"/>
        <path class='st2' d="M15,35h1v4h2v-4h1c0.553,0,1-0.447,1-1V20c0-0.552-0.447-1-1-1h-1v-4h-2v4h-1c-0.553,0-1,0.448-1,1v14   C14,34.553,14.447,35,15,35z M16,21h2v12h-2V21z"/>
        <path class='st2' d="M25,21h1v4h2v-4h1c0.553,0,1-0.448,1-1V6c0-0.552-0.447-1-1-1h-1V1h-2v4h-1c-0.553,0-1,0.448-1,1v14   C24,20.552,24.447,21,25,21z M26,7h2v12h-2V7z"/>
        <path class='st2' d="M35,43h1v4h2v-4h1c0.553,0,1-0.447,1-1V28c0-0.552-0.447-1-1-1h-1v-4h-2v4h-1c-0.553,0-1,0.448-1,1v14   C34,42.553,34.447,43,35,43z M36,29h2v12h-2V29z"/>
        <path class='st2' d="M45,21h1v4h2v-4h1c0.553,0,1-0.448,1-1V6c0-0.552-0.447-1-1-1h-1V1h-2v4h-1c-0.553,0-1,0.448-1,1v14   C44,20.552,44.447,21,45,21z M46,7h2v12h-2V7z"/>
        <path class='st2' d="M55,25h1v4h2v-4h1c0.553,0,1-0.448,1-1V10c0-0.552-0.447-1-1-1h-1V5h-2v4h-1c-0.553,0-1,0.448-1,1v14   C54,24.552,54.447,25,55,25z M56,11h2v12h-2V11z"/>
        <path class='st1' d="M5,57c2.206,0,4-1.794,4-4c0-0.124-0.026-0.242-0.037-0.363l12.745-6.372C22.43,47.311,23.635,48,25,48   c1.283,0,2.413-0.617,3.146-1.559l5.381,4.612C33.201,51.632,33,52.29,33,53c0,2.206,1.794,4,4,4s4-1.794,4-4   c0-0.173-0.03-0.337-0.051-0.504l15.974-14.094C57.53,38.774,58.237,39,59,39c2.206,0,4-1.794,4-4c0-2.206-1.794-4-4-4   s-4,1.794-4,4c0,0.716,0.204,1.378,0.534,1.96L40.136,50.547C39.403,49.612,38.277,49,37,49c-0.769,0-1.481,0.228-2.091,0.606   l-5.959-5.108C28.97,44.333,29,44.17,29,44c0-2.206-1.794-4-4-4s-4,1.794-4,4c0,0.124,0.026,0.242,0.037,0.363L8.292,50.736   C7.57,49.689,6.365,49,5,49c-2.206,0-4,1.794-4,4S2.794,57,5,57z M59,33c1.103,0,2,0.897,2,2s-0.897,2-2,2s-2-0.897-2-2   S57.897,33,59,33z M39,53c0,1.103-0.897,2-2,2s-2-0.897-2-2s0.897-2,2-2S39,51.897,39,53z M25,42c1.103,0,2,0.897,2,2s-0.897,2-2,2   s-2-0.897-2-2S23.897,42,25,42z M5,51c1.103,0,2,0.897,2,2s-0.897,2-2,2s-2-0.897-2-2S3.897,51,5,51z"/>
    </g>
    <!-- <text x="0" y="79" fill="#000000" font-size="5px" font-weight="bold" font-family="'Helvetica Neue', Helvetica, Arial-Unicode, Arial, Sans-serif">Created by Template</text> -->
    <!-- <text x="0" y="84" fill="#000000" font-size="5px" font-weight="bold" font-family="'Helvetica Neue', Helvetica, Arial-Unicode, Arial, Sans-serif">from the Noun Project</text> -->
</svg>