<svg xmlns="http://www.w3.org/2000/svg"
    xmlns:xlink="http://www.w3.org/1999/xlink" version="1.1" x="0px" y="0px" viewBox="0 0 100 100" enable-background="new 0 0 100 100" xml:space="preserve">
    <style type="text/css">.st1{fill:#00ff00;} .st2{fill:#ff00ff;}</style>
    <path class='st2' d="M94,48.6c1.3,0.8,1.3,2,0,2.8l-9.4,5.4c-1.3,0.8-3.6,2.1-4.9,2.8l-9.4,5.4c-1.3,0.8-2.5,0.1-2.5-1.4V52.8c0-1.6,0-4.1,0-5.7  V36.4c0-1.6,1.1-2.2,2.5-1.4l9.4,5.4c1.4,0.8,3.6,2.1,4.9,2.8L94,48.6z"/>
    <path class='st2' d="M6,51.4c-1.3-0.8-1.3-2.1,0-2.8l9.3-5.4c1.3-0.8,3.6-2.1,4.9-2.8l9.3-5.4c1.4-0.8,2.5-0.1,2.5,1.4v10.8c0,1.6,0,4.1,0,5.7  v10.8c0,1.6-1.1,2.2-2.5,1.4l-9.3-5.4c-1.3-0.8-3.6-2.1-4.9-2.8L6,51.4z"/>
    <path class='st1' d="M48.6,6c0.8-1.3,2-1.3,2.8,0l5.4,9.4c0.8,1.3,2.1,3.6,2.8,4.9l5.4,9.4c0.8,1.3,0.1,2.5-1.4,2.5H52.8c-1.6,0-4.1,0-5.7,0  H36.4c-1.6,0-2.2-1.1-1.4-2.5l5.4-9.4c0.8-1.4,2.1-3.6,2.8-4.9L48.6,6z"/>
    <path class='st1' d="M51.4,94c-0.8,1.3-2.1,1.3-2.8,0l-5.4-9.3c-0.8-1.3-2.1-3.6-2.8-4.9L35,70.4c-0.8-1.4-0.1-2.5,1.4-2.5h10.8  c1.6,0,4.1,0,5.7,0h10.8c1.6,0,2.2,1.1,1.4,2.5l-5.4,9.3c-0.8,1.3-2.1,3.6-2.8,4.9L51.4,94z"/>
    <!-- <text x="0" y="115" fill="#000000" font-size="5px" font-weight="bold" font-family="'Helvetica Neue', Helvetica, Arial-Unicode, Arial, Sans-serif">Created by Federico Panzano</text> -->
    <!-- <text x="0" y="120" fill="#000000" font-size="5px" font-weight="bold" font-family="'Helvetica Neue', Helvetica, Arial-Unicode, Arial, Sans-serif">from the Noun Project</text> -->
</svg>