<svg xmlns="http://www.w3.org/2000/svg" data-name="Layer 1" viewBox="0 0 100 100" x="0px" y="0px">
    <title>website icon</title>
    <style type="text/css">.st1{fill:#00ff00;} .st2{fill:#ff00ff;}</style>
    <path class="st1" d="M87.05,13.92a1.09,1.09,0,0,0-.14.19l-4.65,7.94a1.09,1.09,0,0,1-1,.54l-1.63-.12-.13,0a9.19,9.19,0,0,1-5.74-3.9,1.05,1.05,0,0,1,0-1.2c1.17-1.64,4.52-6.45,5.38-8.94,1-2.86-1.58-3-1.87-3h-.06a15.87,15.87,0,0,0-11,3.44c-4.79,4.11-6.07,9.66-6.15,15.54A11.78,11.78,0,0,1,56.59,33l-.06.05c-1,1-25.94,25.91-28.22,28.41a10.42,10.42,0,0,1-7.57,3.23A14.42,14.42,0,0,0,11.66,68c-2.85,2.58-4,4.08-5.15,9.19-1,4.66,1.5,9.14,2,9.9a1,1,0,0,0,.17.21c2.13,2,3.14.26,3.14.26l5-7.83A1.08,1.08,0,0,1,18,79.25l4.19,1.36a1,1,0,0,1,.42.27l1.48,1.57a1,1,0,0,1,.18,1.15,32.71,32.71,0,0,1-4,6.68c-2.4,2.93-.39,3.92,0,4.07l.09,0c1.28.67,9.39.53,13.29-4.94S36.79,81.13,36.84,77c0-3.9,3.23-6.6,3.63-6.93l.08-.08c1.13-1.13,23.53-23.56,27.92-28.12S76,37.91,76.26,38h0c.34.05,4.32.65,7-.46s7.79-5.86,9.72-10.92S92.33,16.13,91,13.54C89.74,11.23,87.52,13.42,87.05,13.92Z" />
    <polygon class="st2" points="44.11 39.69 32.4 28.3 27.99 18.42 12.95 9.94 8.55 14.34 16.5 30.67 24.23 33.25 37.23 45.92 44.11 39.69" />
    <path class="st2" d="M63.4,54.35l-9.88,9.88a2.37,2.37,0,0,0,0,3.35l22,22a2.37,2.37,0,0,0,3.35,0L88.89,79.47a2.37,2.37,0,0,0,0-3.36L66.73,54.34A2.37,2.37,0,0,0,63.4,54.35Z" />
</svg>