/* XPM */
static char * icon_xpm[] = {
"71 71 4 1",
" 	c None",
".	c #FFFFFF",
"+	c #000000",
"@	c #00B300",
".......................................................................",
".......................................................................",
".................................................................+++...",
"..++........................................................++++++++...",
"..++..................................................+++++++++++++....",
".++++............................................++++++++++++....++....",
".++++......................................++++++++++++................",
"++++++................................++++++++++++.....................",
"++++++...........................+++++++++++.................++........",
"..++...........................+++++++@......................++........",
"..++.........................+++++.....................................",
"..++.......................++++...........................+............",
"..++......................++++...........................+++...........",
"..++....................++++..............................+............",
"..++...................++++............................................",
"..++..................+++.............................++...............",
"..++.................+++..............................++...............",
"..++................+++................................................",
"..++...............+++.................................................",
"..++...............++.............................++...................",
"..++..............+++.............................++...................",
"..++.............+++...................................................",
"..++............+++............................+.......................",
"..++............++............................+++......................",
"..++...........+++.............................+.......................",
"..++..........+++......................................................",
"..++.........+++...........................++..........................",
"..++.........++............................++..........................",
"..++........+++........................................................",
"..++........++.........................................................",
"..++.......+++.........................++..............................",
"..++.......++..........................++..............................",
"..++.......++..........................................................",
"..++.......++.......................+..................................",
"..++......+++......................+++.................................",
"..++......++........................+..................................",
"..++......++...........................................................",
"..++......++....................++.....................................",
"..++.....+++....................++.....................................",
"..++.....++............................................................",
"..++.....++............................................................",
"..++.....++.................++.........................................",
"..++....+++.................++.........................................",
"..++....++.............................................................",
"..++....++...............+.............................................",
"..++....++..............+++............................................",
"..++...+++...............+.............................................",
"..++...++..............................................................",
"..++...++............++................................................",
"..++...++............++................................................",
"..++..+++..............................................................",
"..++..++...............................................................",
"..++..++.........++....................................................",
"..++..++.........++....................................................",
"..++.+++...............................................................",
"..++.++.......+........................................................",
"..++.++......+++.......................................................",
"..++.++.......+........................................................",
"..+++++................................................................",
"..++++....++...........................................................",
"..++++....++...........................................................",
"..++++.................................................................",
"..++++.................................................................",
"..+++.++...............................................................",
"..+++.++...............................................................",
"..+++.........................................................++.......",
"..+++.........................................................++++.....",
"..++++++++++++++++++++++++++++++++++++++++++++++++++++++++++++++++++...",
"...+++++++++++++++++++++++++++++++++++++++++++++++++++++++++++++++++...",
"..............................................................++++.....",
"..............................................................++......."};
