<svg xmlns="http://www.w3.org/2000/svg" xmlns:xlink="http://www.w3.org/1999/xlink" version="1.1" x="0px" y="0px" viewBox="0 0 128 128" style="enable-background:new 0 0 128 128;" xml:space="preserve" width="129" height="129">
    
    <style type="text/css">.st1{fill:#000000;} .st2{fill:#d4821e;}</style>
    <path class='st1' d="M48,32c26.51,0,48-7.163,48-16C96,7.162,74.51,0,48,0C21.49,0,0,7.162,0,16C0,24.837,21.49,32,48,32z M48,4  c28.47,0,44,7.927,44,12c0,4.073-15.53,12-44,12C19.53,28,4,20.073,4,16C4,11.927,19.53,4,48,4z"/>
    <path class='st1' d="M96,41v-3.269C96,36.775,95.277,36,94.387,36c-0.134,0-0.263,0.022-0.387,0.056c0.073,0.417,0.118,0.844,0.118,1.281v2.966  C94.754,40.512,95.379,40.749,96,41z"/>
    <path class='st1' d="M0.988,53.752C1.969,54.346,17.912,63.71,45.273,64c0.514-1.254,1.085-2.485,1.727-3.687l-0.433-0.431  c-23.574-0.075-38.7-7.031-42.533-9.019L4.012,37.992C4.01,36.892,3.112,36,2.006,36c-0.001,0-0.002,0-0.004,0  C0.894,36.002-0.002,36.896,0,38l0.025,14.051C0.026,52.746,0.392,53.391,0.988,53.752z"/>
    <path class='st1' d="M1.005,85.746C2.015,86.347,18.585,95.917,47,96c-0.656-1.349-1.227-2.732-1.722-4.144  c-22.787-0.453-37.391-7.069-41.175-8.997L4.08,69.991C4.078,68.892,3.166,68,2.04,68c-0.001,0-0.002,0-0.004,0  C0.909,68.002-0.002,68.896,0,69.999l0.025,14.046C0.026,84.74,0.398,85.385,1.005,85.746z"/>
    <path class='st1' d="M0.984,117.744C1.976,118.347,18.331,128,46.367,128c7.689,0,16.262-0.731,25.633-2.57c-0.857-1.095-1.44-2.385-1.659-3.787  c-37.13,6.917-61.333-4.188-66.324-6.785l-0.023-12.866C3.992,100.892,3.1,100,1.997,100c-0.001,0-0.002,0-0.004,0  c-1.103,0.002-1.995,0.896-1.993,1.999l0.024,14.044C0.025,116.737,0.389,117.383,0.984,117.744z"/>
    <path class='st1' d="M96,117.339v-1.149c-0.77,0.29-1.545,0.564-2.333,0.806v2.572c0.335-0.116,0.665-0.225,1.002-0.344  C95.467,118.94,96,118.185,96,117.339z"/>
    <path class='st2' d="M123.455,70.333h-6.511c-0.916-4.197-2.57-8.114-4.817-11.619l4.609-4.607c1.775-1.774,1.594-4.828-0.402-6.827  l-3.613-3.613c-1.077-1.075-2.46-1.624-3.783-1.624c-1.135,0-2.226,0.402-3.044,1.222l-4.608,4.609  c-3.505-2.247-7.422-3.901-11.619-4.817v-6.511c0-2.51-2.29-4.545-5.113-4.545h-5.106c-2.824,0-5.114,2.035-5.114,4.545v6.511  c-4.197,0.916-8.114,2.57-11.619,4.817l-4.607-4.609c-0.818-0.819-1.909-1.222-3.043-1.222c-1.324,0-2.706,0.549-3.782,1.624  l-3.614,3.613c-1.997,1.999-2.179,5.053-0.402,6.827l4.608,4.607c-2.247,3.505-3.9,7.422-4.816,11.619h-6.513  c-2.509,0-4.544,2.29-4.544,5.113v5.107c0,2.823,2.035,5.113,4.544,5.113h6.513c0.916,4.197,2.569,8.114,4.816,11.619l-4.608,4.607  c-1.776,1.774-1.595,4.828,0.402,6.826l3.614,3.614c1.076,1.075,2.458,1.624,3.782,1.624c1.134,0,2.225-0.402,3.043-1.222  l4.607-4.609c3.505,2.247,7.422,3.901,11.619,4.817v6.511c0,2.51,2.29,4.545,5.114,4.545h5.106c2.823,0,5.113-2.035,5.113-4.545  v-6.511c4.197-0.916,8.114-2.57,11.619-4.817l4.608,4.609c0.818,0.819,1.909,1.222,3.044,1.222c1.324,0,2.706-0.549,3.783-1.624  l3.613-3.614c1.996-1.998,2.178-5.052,0.402-6.826l-4.609-4.607c2.247-3.505,3.901-7.422,4.817-11.619h6.511  c2.51,0,4.545-2.29,4.545-5.113v-5.107C128,72.623,125.965,70.333,123.455,70.333z M124,80.554c0,0.719-0.409,1.113-0.545,1.113  h-9.732l-0.687,3.148c-0.8,3.664-2.238,7.134-4.276,10.313l-1.738,2.711l6.887,6.885c0.096,0.096,0.104,0.662-0.403,1.169  l-3.61,3.612c-0.188,0.188-0.889,0.695-1.172,0.404l-6.885-6.887l-2.711,1.738c-3.179,2.038-6.648,3.477-10.313,4.276l-3.148,0.687  v9.732c0,0.136-0.395,0.545-1.113,0.545h-5.106c-0.719,0-1.114-0.409-1.114-0.545v-9.732l-3.148-0.687  c-3.664-0.8-7.134-2.238-10.313-4.276l-2.711-1.738c0,0-6.852,6.854-6.885,6.887c-0.282,0.281-0.987-0.222-1.168-0.402l-3.613-3.614  c-0.194-0.194-0.691-0.881-0.403-1.169l6.886-6.885l-1.738-2.711c-2.037-3.177-3.476-6.648-4.275-10.313l-0.688-3.148h-9.733  c-0.136,0-0.544-0.395-0.544-1.113v-5.107c0-0.719,0.408-1.113,0.544-1.113h9.733l0.688-3.148c0.8-3.665,2.238-7.136,4.275-10.313  l1.738-2.711c0,0-6.864-6.863-6.887-6.886c-0.281-0.282,0.222-0.986,0.403-1.168l3.614-3.613c0.194-0.194,0.88-0.691,1.168-0.403  l6.885,6.887l2.711-1.738c3.179-2.038,6.648-3.477,10.313-4.276l3.148-0.687v-9.732c0-0.136,0.396-0.545,1.114-0.545h5.106  c0.719,0,1.113,0.409,1.113,0.545v9.732l3.148,0.687c3.664,0.8,7.134,2.238,10.313,4.276l2.711,1.738c0,0,6.845-6.847,6.885-6.887  c0.282-0.281,0.99,0.223,1.17,0.402l3.611,3.611c0.508,0.51,0.5,1.076,0.404,1.172l-6.887,6.885l1.738,2.711  c2.038,3.179,3.477,6.648,4.276,10.313l0.687,3.148h9.732c0.136,0,0.545,0.394,0.545,1.113V80.554z"/>
    <path class='st2' d="M82,56c-12.151,0-22,9.849-22,22c0,12.151,9.849,22,22,22c12.151,0,22-9.849,22-22C104,65.849,94.151,56,82,56z M82,96  c-9.925,0-18-8.075-18-18s8.075-18,18-18s18,8.075,18,18S91.925,96,82,96z"/>
    <!-- <text x="0" y="143" fill="#000000" font-size="5px" font-weight="bold" font-family="'Helvetica Neue', Helvetica, Arial-Unicode, Arial, Sans-serif">Created by priyanka</text> -->
    <!-- <text x="0" y="148" fill="#000000" font-size="5px" font-weight="bold" font-family="'Helvetica Neue', Helvetica, Arial-Unicode, Arial, Sans-serif">from the Noun Project</text> -->
</svg>