<svg xmlns="http://www.w3.org/2000/svg" xmlns:xlink="http://www.w3.org/1999/xlink" version="1.1" x="0px" y="0px" viewBox="0 0 90 90" xml:space="preserve">
    <style type="text/css">.st1{fill:#00ff00 !important;} .st2{fill:#ff00ff;}</style>

    <g transform="translate(0,-952.36218)">
        <path style="fill:#00ff00" d="m 9.8124127,967.36234 a 0.99999225,1.0000954 0 0 0 -0.8124124,1.00002 l 0,53.99984 a 0.99999225,1.0000954 0 0 0 0.9998922,0.9999 l 47.9948295,0 a 0.99999225,1.0000954 0 1 0 0,-2 l -46.994938,0 0,-51.99975 15.529576,0 9.686457,11.62497 a 0.99999225,1.0000954 0 0 0 0.781166,0.37497 l 39.995691,0 0,1 a 0.99999225,1.0000954 0 0 0 0,0.125 l 0,23.87481 a 0.99999225,1.0000954 0 1 0 1.999784,0 l 0,-23.8123 a 0.99999225,1.0000954 0 0 0 0,-0.18751 l 0,-2 a 0.99999225,1.0000954 0 0 0 0,-0.094 l 0,-9.9062 a 0.99999225,1.0000954 0 0 0 -0.999892,-1 l -48.838488,0 -1.374852,-1.65625 a 0.99999225,1.0000954 0 0 0 -0.781166,-0.34368 l -16.9981675,0 a 0.99999225,1.0000954 0 0 0 -0.1874798,0 z m 21.0289833,4.00001 46.151278,0 0,7.99997 -39.495745,0 -6.655533,-7.99997 z m 47.088677,41.96835 a 0.99999225,1.0000954 0 0 0 -0.624933,1.7501 l 10.092662,9.2813 -23.403727,0 a 0.99999225,1.0000954 0 0 0 -0.18748,0 1.0042926,1.004396 0 0 0 0.18748,1.9998 l 23.403727,0 -10.092662,9.25 a 1.0058747,1.0059787 0 1 0 1.374852,1.4687 L 90.6787,1026.0807 a 0.99999225,1.0000954 0 0 0 0,-1.4686 l -11.998708,-11 a 0.99999225,1.0000954 0 0 0 -0.749919,-0.2814 z"  />
    </g>
    <!-- <text x="0" y="115" fill="#000000" font-size="5px" font-weight="bold" font-family="'Helvetica Neue', Helvetica, Arial-Unicode, Arial, Sans-serif">Created by sevgenjory</text>
    <text x="0" y="120" fill="#000000" font-size="5px" font-weight="bold" font-family="'Helvetica Neue', Helvetica, Arial-Unicode, Arial, Sans-serif">from the Noun Project</text> -->

</svg>