<svg xmlns="http://www.w3.org/2000/svg"
    xmlns:xlink="http://www.w3.org/1999/xlink" version="1.1" x="0px" y="0px" width="128" height="128" viewBox="0 0 64 64" style="enable-background:new 0 0 64 64;" xml:space="preserve">
     <style type="text/css">.st1{fill:#d4821e;}</style>
    <g class='st1' >
        <path d="M62.479,26.122L52,20.406V13c0-0.552-0.447-1-1-1h-7V8c0-0.366-0.2-0.703-0.521-0.878l-11-6   c-0.297-0.163-0.66-0.163-0.957,0l-11,6C20.2,7.297,20,7.634,20,8v4h-7c-0.553,0-1,0.448-1,1v7.406L1.521,26.122   C1.2,26.297,1,26.634,1,27v10c0,0.366,0.2,0.703,0.521,0.878l11,6C12.67,43.959,12.835,44,13,44s0.33-0.041,0.479-0.122l11-6   C24.8,37.703,25,37.366,25,37V27c0-0.366-0.2-0.703-0.521-0.878L14,20.406V14h6v4c0,0.366,0.2,0.703,0.521,0.878l11,6   C31.67,24.959,31.835,25,32,25s0.33-0.041,0.479-0.122l11-6C43.8,18.703,44,18.366,44,18v-4h6v6.406l-10.479,5.716   C39.2,26.297,39,26.634,39,27v10c0,0.366,0.2,0.703,0.521,0.878l11,6C50.67,43.959,50.835,44,51,44s0.33-0.041,0.479-0.122l11-6   C62.8,37.703,63,37.366,63,37V27C63,26.634,62.8,26.297,62.479,26.122z M3,28.684l9,4.909v7.722l-9-4.909V28.684z M14,41.315   v-7.722l9-4.909v7.722L14,41.315z M21.912,27L13,31.861L4.088,27L12,22.685V25h2v-2.315L21.912,27z M32,3.139L40.912,8L32,12.861   L23.088,8L32,3.139z M22,14h2v-2h-2V9.684l9,4.909v7.722l-9-4.909V14z M42,17.406l-9,4.909v-7.722l9-4.909V12h-2v2h2V17.406z    M50,22.685V25h2v-2.315L59.912,27L51,31.861L42.088,27L50,22.685z M41,28.684l9,4.909v7.722l-9-4.909V28.684z M52,41.315v-7.722   l9-4.909v7.722L52,41.315z"/>
        <path d="M50,50h-6v-4c0-0.366-0.2-0.703-0.521-0.878l-11-6c-0.297-0.163-0.66-0.163-0.957,0l-11,6C20.2,45.297,20,45.634,20,46v4   h-6v-4h-2v5c0,0.552,0.447,1,1,1h7v4c0,0.366,0.2,0.703,0.521,0.878l11,6C31.67,62.959,31.835,63,32,63s0.33-0.041,0.479-0.122   l11-6C43.8,56.703,44,56.366,44,56v-4h7c0.553,0,1-0.448,1-1v-5h-2V50z M32,41.139L40.912,46L32,50.861L23.088,46L32,41.139z    M22,52h2v-2h-2v-2.316l9,4.909v7.722l-9-4.909V52z M42,55.406l-9,4.909v-7.722l9-4.909V50h-2v2h2V55.406z"/>
    </g>
    <!-- <text x="0" y="79" fill="#000000" font-size="5px" font-weight="bold" font-family="'Helvetica Neue', Helvetica, Arial-Unicode, Arial, Sans-serif">Created by Template</text> -->
    <!-- <text x="0" y="84" fill="#000000" font-size="5px" font-weight="bold" font-family="'Helvetica Neue', Helvetica, Arial-Unicode, Arial, Sans-serif">from the Noun Project</text> -->
</svg>